<?xml version="1.0" encoding="utf-8"?>
<svg viewBox="0 0 500 500" xmlns="http://www.w3.org/2000/svg" xmlns:bx="https://boxy-svg.com">
  <path style="fill: rgb(224, 221, 223);" d="M 498.962 235.064 C 495.594 217.179 484.416 202.468 469.031 195.638 L 201.207 49.72 C 198.206 48.08 194.587 48.734 192.212 51.342 L 92.021 161.525 C 89.653 164.132 89.058 168.111 90.544 171.415 L 223.237 465.942 C 229.447 482.862 242.826 495.153 259.087 498.858 C 262.452 499.624 265.832 499.999 269.186 499.999 C 282.164 499.999 294.722 494.381 304.118 484.05 L 485.495 284.588 C 497.322 271.585 502.354 253.071 498.962 235.064 Z" bx:origin="0.39064 -0.163466"/>
  <path style="fill: rgb(140, 240, 218);" d="M 498.962 235.064 C 495.594 217.179 484.416 202.468 469.031 195.638 L 465.136 193.516 L 100.503 193.516 L 223.237 465.94 C 229.449 482.859 242.827 495.153 259.089 498.858 C 262.452 499.623 265.832 499.998 269.187 499.998 C 282.164 499.998 294.724 494.38 304.118 484.048 L 485.497 284.588 C 497.322 271.585 502.354 253.071 498.962 235.064 Z" bx:origin="0.374214 -0.712742"/>
  <path style="fill: rgb(193, 188, 191);" d="M 297.41 469.394 C 294.056 469.394 290.674 469.018 287.312 468.252 C 271.049 464.549 257.671 452.255 251.462 435.336 L 129.061 163.655 C 128.069 161.451 128.465 158.798 130.044 157.061 L 218.893 59.355 L 201.207 49.72 C 198.206 48.08 194.587 48.734 192.212 51.342 L 92.021 161.523 C 89.651 164.13 89.058 168.109 90.544 171.414 L 223.237 465.94 C 229.447 482.858 242.826 495.152 259.087 498.856 C 262.452 499.622 265.832 499.998 269.186 499.998 C 282.164 499.998 294.722 494.379 304.118 484.047 L 328.461 457.278 C 319.623 465.154 308.676 469.394 297.41 469.394 Z" bx:origin="0.671339 -0.163466"/>
  <path style="fill: rgb(54, 226, 188);" d="M 297.41 469.394 C 294.056 469.394 290.674 469.018 287.312 468.252 C 271.049 464.549 257.671 452.255 251.462 435.336 L 142.513 193.517 L 100.503 193.517 L 223.237 465.942 C 229.449 482.862 242.827 495.153 259.089 498.858 C 262.452 499.624 265.832 499.999 269.187 499.999 C 282.164 499.999 294.724 494.381 304.118 484.05 L 328.462 457.281 C 319.623 465.154 308.676 469.394 297.41 469.394 Z" bx:origin="0.655809 -0.712747"/>
  <path style="fill: rgb(224, 221, 223);" d="M 209.158 12.454 L 206.212 9.214 C 195.039 -3.072 176.862 -3.072 165.691 9.214 L 53.714 132.358 C 48.303 138.308 45.321 146.221 45.321 154.637 C 45.321 163.052 48.299 170.964 53.712 176.915 L 56.66 180.155 C 62.243 186.297 69.581 189.37 76.919 189.37 C 84.258 189.37 91.592 186.297 97.178 180.155 L 209.158 57.011 C 220.331 44.728 220.331 24.739 209.158 12.454 Z" bx:origin="1.188502 -0.13163"/>
  <rect x="119.117" y="74.122" transform="matrix(-0.672773, -0.739849, 0.675813, -0.743194, 177.966553, 267.58078)" style="fill: rgb(249, 248, 249);" width="64.604" height="52.929" bx:origin="0.387396 3.324485"/>
  <path style="fill: rgb(15, 156, 126);" d="M 354.39 317.011 C 351.337 313.656 346.391 313.656 343.339 317.011 L 319.396 343.343 L 306.873 329.569 L 319.028 316.202 C 322.081 312.845 322.081 307.405 319.028 304.05 C 315.975 300.693 311.03 300.694 307.977 304.05 L 295.822 317.417 L 283.298 303.645 L 307.242 277.314 C 310.293 273.957 310.293 268.516 307.242 265.162 C 304.187 261.806 299.242 261.806 296.189 265.162 L 272.247 291.492 L 259.722 277.721 L 271.878 264.352 C 274.931 260.998 274.931 255.557 271.878 252.203 C 268.826 248.846 263.878 248.846 260.827 252.203 L 248.673 265.57 L 236.148 251.796 L 260.092 225.465 C 263.143 222.11 263.143 216.669 260.092 213.313 C 257.038 209.959 252.092 209.959 249.041 213.313 L 225.097 239.645 L 212.576 225.872 L 224.732 212.505 C 227.783 209.151 227.783 203.71 224.732 200.354 C 221.679 196.997 216.732 196.997 213.679 200.354 L 201.525 213.72 L 189.002 199.949 L 212.942 173.617 C 215.995 170.261 215.995 164.821 212.942 161.466 C 209.89 158.109 204.946 158.109 201.893 161.466 L 177.951 187.795 L 162.847 171.188 C 159.796 167.832 154.85 167.831 151.798 171.188 C 148.748 174.544 148.748 179.984 151.798 183.34 L 337.447 387.5 C 338.974 389.18 340.972 390.018 342.974 390.018 C 344.972 390.018 346.974 389.18 348.5 387.5 C 351.551 384.144 351.551 378.703 348.5 375.348 L 330.452 355.5 L 354.395 329.17 C 357.441 325.808 357.441 320.367 354.39 317.011 Z" bx:origin="0.485062 -0.79576"/>
  <path style="fill: rgb(140, 240, 218);" d="M 76.141 267.407 C 74.66 265.591 72.544 264.551 70.327 264.551 C 68.107 264.551 65.992 265.591 64.512 267.407 C 57.906 275.497 0 347.621 0 387.719 C 0 430.364 31.548 465.056 70.326 465.056 C 109.102 465.056 140.65 430.363 140.65 387.719 C 140.651 347.621 82.745 275.497 76.141 267.407 Z" bx:origin="1.777461 -1.443749"/>
  <path style="fill: rgb(54, 226, 188);" d="M 92.727 440.423 C 53.947 440.423 22.4 405.731 22.4 363.085 C 22.4 334.949 50.913 291.046 70.202 264.559 C 68.03 264.597 65.965 265.625 64.512 267.406 C 57.906 275.497 0 347.621 0 387.719 C 0 430.364 31.548 465.056 70.326 465.056 C 95.439 465.056 117.507 450.495 129.951 428.655 C 119.148 436.103 106.39 440.423 92.727 440.423 Z" bx:origin="1.923816 -1.443845"/>
  <g transform="matrix(0.976564, 0, 0, 1.073929, 0.000954, -24.926178)" style="" bx:origin="0.463299 -1.012846">
    <circle style="fill:#b5f6e9;" cx="95.484" cy="382.108" r="27.738"/>
    <circle style="fill:#b5f6e9;" cx="78.415" cy="322.363" r="14.936"/>
    <circle style="fill:#b5f6e9;" cx="371.269" cy="269.553" r="29.872"/>
    <circle style="fill:#b5f6e9;" cx="302.99" cy="431.717" r="12.802"/>
    <circle style="fill:#b5f6e9;" cx="460.352" cy="242.348" r="18.67"/>
    <circle style="fill:#b5f6e9;" cx="402.741" cy="338.366" r="9.068"/>
    <circle style="fill:#b5f6e9;" cx="432.08" cy="293.024" r="13.869"/>
    <circle style="fill:#b5f6e9;" cx="248.579" cy="344.234" r="12.802"/>
    <circle style="fill:#b5f6e9;" cx="300.856" cy="370.905" r="11.736"/>
  </g>
  <g transform="matrix(0.781251, 0, 0, 0.818346, 53.172752, 27.90836)" style="" bx:origin="0 0"/>
  <g transform="matrix(0.781251, 0, 0, 0.818346, 53.172752, 27.90836)" style="" bx:origin="0 0"/>
  <g transform="matrix(0.781251, 0, 0, 0.818346, 53.172752, 27.90836)" style="" bx:origin="0 0"/>
  <g transform="matrix(0.781251, 0, 0, 0.818346, 53.172752, 27.90836)" style="" bx:origin="0 0"/>
  <g transform="matrix(0.781251, 0, 0, 0.818346, 53.172752, 27.90836)" style="" bx:origin="0 0"/>
  <g transform="matrix(0.781251, 0, 0, 0.818346, 53.172752, 27.90836)" style="" bx:origin="0 0"/>
  <g transform="matrix(0.781251, 0, 0, 0.818346, 53.172752, 27.90836)" style="" bx:origin="0 0"/>
  <g transform="matrix(0.781251, 0, 0, 0.818346, 53.172752, 27.90836)" style="" bx:origin="0 0"/>
  <g transform="matrix(0.781251, 0, 0, 0.818346, 53.172752, 27.90836)" style="" bx:origin="0 0"/>
  <g transform="matrix(0.781251, 0, 0, 0.818346, 53.172752, 27.90836)" style="" bx:origin="0 0"/>
  <g transform="matrix(0.781251, 0, 0, 0.818346, 53.172752, 27.90836)" style="" bx:origin="0 0"/>
  <g transform="matrix(0.781251, 0, 0, 0.818346, 53.172752, 27.90836)" style="" bx:origin="0 0"/>
  <g transform="matrix(0.781251, 0, 0, 0.818346, 53.172752, 27.90836)" style="" bx:origin="0 0"/>
  <g transform="matrix(0.781251, 0, 0, 0.818346, 53.172752, 27.90836)" style="" bx:origin="0 0"/>
  <g transform="matrix(0.781251, 0, 0, 0.818346, 53.172752, 27.90836)" style="" bx:origin="0 0"/>
</svg>